<svg xmlns="http://www.w3.org/2000/svg" xmlns:xlink="http://www.w3.org/1999/xlink" viewBox="0 0 260.61 116.85"><defs><style>.cls-1{fill:#231815;}.cls-2{fill:#094;}.cls-3{fill:url(#linear-gradient);}.cls-4{fill:url(#linear-gradient-2);}.cls-5{fill:url(#linear-gradient-3);}.cls-6{fill:url(#radial-gradient);}.cls-7{fill:url(#radial-gradient-2);}</style><linearGradient id="linear-gradient" x1="-1856.36" y1="-558.76" x2="-1856.36" y2="-802.55" gradientTransform="translate(424.24 190.68) scale(0.2)" gradientUnits="userSpaceOnUse"><stop offset="0.01" stop-color="#f5a400"/><stop offset="0.65" stop-color="#fff100"/><stop offset="1" stop-color="#fff100"/></linearGradient><linearGradient id="linear-gradient-2" x1="-1833.97" y1="-558.76" x2="-1833.97" y2="-802.55" xlink:href="#linear-gradient"/><linearGradient id="linear-gradient-3" x1="-1840.47" y1="-558.76" x2="-1840.47" y2="-802.55" gradientTransform="translate(424.24 190.68) scale(0.2)" gradientUnits="userSpaceOnUse"><stop offset="0.01" stop-color="#f5a200"/><stop offset="0.65" stop-color="#fff100"/><stop offset="1" stop-color="#fff100"/></linearGradient><radialGradient id="radial-gradient" cx="-1860.46" cy="-626.96" r="49.02" gradientTransform="translate(424.24 190.68) scale(0.2)" gradientUnits="userSpaceOnUse"><stop offset="0" stop-color="#a2d7d4"/><stop offset="0.18" stop-color="#80cab5"/><stop offset="0.57" stop-color="#3bb079"/><stop offset="0.86" stop-color="#109f53"/><stop offset="1" stop-color="#094"/></radialGradient><radialGradient id="radial-gradient-2" cx="-583.24" cy="1716.51" r="757.3" gradientTransform="translate(700.02 -623.51) scale(0.91 0.74)" gradientUnits="userSpaceOnUse"><stop offset="0.01" stop-color="#f8b500"/><stop offset="0.37" stop-color="#ffe100"/><stop offset="1" stop-color="#fff100"/></radialGradient></defs><g id="图层_2" data-name="图层 2"><g id="图层_1-2" data-name="图层 1"><path class="cls-1" d="M109.38,103.25V113h-1.64v-.85H103.4v4.52h-1.65v-4.52H97.54v.93H96v-9.84h5.79V101h1.65v2.24Zm-11.84,1.52v2.14h4.21v-2.14Zm4.21,5.86v-2.25H97.54v2.25Zm1.65-5.86v2.14h4.34v-2.14Zm4.34,5.86v-2.25H103.4v2.25Z"/><path class="cls-1" d="M120.2,102a16,16,0,0,1,2.06,3.71l-1.41.6a9.25,9.25,0,0,0-.36-.89c-4.39.34-5,.43-5.42.6a9.51,9.51,0,0,0-.53-1.51,1.52,1.52,0,0,0,.8-.66A13.66,13.66,0,0,0,117,101l1.66.48a19.87,19.87,0,0,1-2,3l3.2-.21a18,18,0,0,0-1-1.7Zm1.26,13c0,.76-.15,1.17-.65,1.4a5.63,5.63,0,0,1-2.32.28,6.28,6.28,0,0,0-.53-1.44,16.16,16.16,0,0,0,1.66,0c.22,0,.27-.07.27-.27v-1.63h-3.14v3.33h-1.49v-9.61h6.2Zm-4.71-6.59v1.21h3.14v-1.21Zm3.14,3.72v-1.28h-3.14v1.28Zm5.24-3.62c-1.77,0-2.2-.46-2.2-2V101h1.55v2.68a26.55,26.55,0,0,0,3.59-1.52l1,1.15a32.77,32.77,0,0,1-4.62,1.66v1.43c0,.55.12.65.84.65h2.34c.62,0,.74-.27.81-1.86a4.53,4.53,0,0,0,1.4.6c-.19,2.1-.62,2.66-2.05,2.66Zm2.62,6.68c.65,0,.77-.32.85-2.15a5.15,5.15,0,0,0,1.4.6c-.18,2.32-.61,2.94-2.12,2.94h-2.69c-1.8,0-2.26-.47-2.26-2v-5.57h1.57v2.54a17.87,17.87,0,0,0,3.73-1.72l1,1.17a23.94,23.94,0,0,1-4.77,1.87v1.71c0,.56.14.66.87.66Z"/><path class="cls-1" d="M143.71,112.74a19.43,19.43,0,0,0,5.79,2.39,6.12,6.12,0,0,0-1,1.3,19.9,19.9,0,0,1-6.22-3.13v3.35h-1.57v-3.32a19.17,19.17,0,0,1-6.19,3.18,10.58,10.58,0,0,0-1-1.3,19.63,19.63,0,0,0,5.88-2.47H134v-1.29h6.77v-1h1.57v1h6.82v1.29Zm-7.77-7.15a14.58,14.58,0,0,1-1.25,1.11,5.07,5.07,0,0,0-1.13-1,13.77,13.77,0,0,0,4-4.68l1.64.31a16.33,16.33,0,0,1-.9,1.45h3.35a10.21,10.21,0,0,0-.65-1.38l1.43-.41a9.5,9.5,0,0,1,.87,1.79h4.93V104h-5.37v1h4.63V106h-4.63v.92h4.66V108h-4.66v1h5.84v1.25H137.51v.49h-1.57Zm5.38-1.6h-3.81v1h3.81Zm0,2h-3.81v.92h3.81Zm0,2h-3.81v1h3.81Z"/><path class="cls-1" d="M168.13,101.72v15h-1.69V116h-10.9v.66h-1.62v-15Zm-1.69,12.86V103.17h-10.9v11.41Zm-.82-7.36h-2.39v4.94c0,.75-.14,1.16-.65,1.38a5.61,5.61,0,0,1-2.27.27,7.21,7.21,0,0,0-.53-1.42,15.39,15.39,0,0,0,1.62,0c.22,0,.29-.07.29-.27v-3.23a19.5,19.5,0,0,1-4.51,3.57,6.85,6.85,0,0,0-1-1.09,16.41,16.41,0,0,0,5-4.17H156.5v-1.4h5.19v-2h1.54v2h2.39Z"/><path class="cls-1" d="M187.21,106.82a19.37,19.37,0,0,1-3,5.78c.58,1.45,1.25,2.34,2,2.34.44,0,.65-.87.75-3.08a4.08,4.08,0,0,0,1.37.89c-.26,3-.84,3.81-2.24,3.81s-2.24-1-3-2.56a15.48,15.48,0,0,1-3.23,2.61,8.73,8.73,0,0,0-1.16-1.3,13.51,13.51,0,0,0,3.73-3,32.25,32.25,0,0,1-1.22-7h-5.47v2.06H180V108c-.08,3.71-.17,5.18-.53,5.65a1.49,1.49,0,0,1-1.09.55,12.39,12.39,0,0,1-2,0,3.7,3.7,0,0,0-.42-1.49c.7.07,1.36.08,1.64.08a.62.62,0,0,0,.53-.2c.19-.24.29-1.21.34-3.79h-2.74c0,2.42-.3,5.84-1.81,8a6.61,6.61,0,0,0-1.33-1.09c1.37-2.05,1.49-5,1.49-7.19v-4.84h7c-.05-.89-.09-1.81-.09-2.72h1.68c0,.93,0,1.83,0,2.72H186a18.63,18.63,0,0,0-2.68-1.79l1-1a18.26,18.26,0,0,1,3,1.9l-.82.87h1.74v1.56h-5.36a33.34,33.34,0,0,0,.83,5.39,17.42,17.42,0,0,0,1.95-4.25Z"/><path class="cls-1" d="M200.73,109.87v1.55c0,1.79-.89,4-7.13,5.38a6,6,0,0,0-1.07-1.31c6-1.13,6.47-2.84,6.47-4.1v-1.52Zm5.4-2.41v6h-1.71v-4.57h-8.79v4.73H194v-6.2Zm-.7-5.73v4.38h-10.8v-4.38Zm-9.15,3h7.38V103.1h-7.38Zm5,8.41a57.37,57.37,0,0,1,6.19,2.27l-.82,1.36a58.58,58.58,0,0,0-6.15-2.46Z"/><path class="cls-1" d="M221.06,101.53a4.91,4.91,0,0,1-.39.54,18.22,18.22,0,0,0,7.18,4.74,3.88,3.88,0,0,0-1,1.38,20.76,20.76,0,0,1-7-5,20.85,20.85,0,0,1-6.92,5,6.66,6.66,0,0,0-1.09-1.35,17.2,17.2,0,0,0,7.86-6Zm-.32,13.22H227v1.45H212.61v-1.45h2v-6.12h1.56v6.12h2.87v-9h1.67v3.75h4.75v1.41h-4.75Z"/><path class="cls-1" d="M246.75,114.27v1.58h-15v-1.58h4.6v-13H238v13h2.58v-13h1.62v13Zm-12.51-2.9a50.56,50.56,0,0,0-2.18-6.17l1.45-.46a59.12,59.12,0,0,1,2.32,6.05Zm12.27-5.88a48.71,48.71,0,0,1-2.84,6l-1.31-.68a35.08,35.08,0,0,0,2.7-6Z"/><polygon class="cls-2" points="39.86 0 0 95.73 63.79 95.73 103.65 0 39.86 0"/><path class="cls-3" d="M55.64,17.88s5.73,4.18,2.88,9.79-11.12,8.41-14.47,10c-5.39,2.6-8.62,5.81-10,8.18a21.26,21.26,0,0,1,7.74-13.31C48.34,27.14,55.76,25.32,55.64,17.88Z"/><path class="cls-4" d="M64.86,35.8a7.83,7.83,0,0,1-.21,10.05c-7.7,9.29-22,.43-28.84,12.25,0,0,2.82-6.44,11.86-9.35C54.62,46.52,63.75,44.21,64.86,35.8Z"/><path class="cls-5" d="M61.14,25.8s-.62,6.87-8.47,10.71c-8.64,4.22-18.62,6.28-22,19-3,11.3,4.53,23.83,20.19,21.87a16.35,16.35,0,0,0,13.89-16.1c0-9.46,4.92-12.06,4.92-12.06a13.1,13.1,0,0,0-6.07,1.59C59.2,53.42,59,56.37,59.16,62S55.62,75.31,47.24,75.57A12.66,12.66,0,0,1,33.85,64.28c-1.16-15.46,12.29-16.47,21.4-20.67C65.76,38.77,64.46,29.15,61.14,25.8Z"/><path class="cls-6" d="M56.39,63.7a10,10,0,1,1-10-10A10,10,0,0,1,56.39,63.7Z"/><path class="cls-1" d="M112,33.11h18.41v4.67H112V55.55h18.7v4.67H96.25V55.55h10V25H112Z"/><path class="cls-1" d="M150.36,48.45h13.39v6.63a1,1,0,0,1-.26.81,1.67,1.67,0,0,1-1.06.23h-1.81l-2.72-5.7h-4.82l2.52,5.7h-5.24Zm-5.51,0h1V60.16h17.43a21.38,21.38,0,0,0,2.5-.12,2.48,2.48,0,0,0,1.6-.81,3.38,3.38,0,0,0,.81-1.78,12.13,12.13,0,0,0,.19-2.16V48.45h1v-4h-1l0-11-22.55,0V44.41h-1Zm18.9-10.93v6.89h-3.62l-2.44-4.74h-4.87L155,44.41h-4.61V37.52Zm5.39-6.78v-4H154.41l.9-1.55h-5.44l-1.26,1.94a3.7,3.7,0,0,1-.93,1.05,2.22,2.22,0,0,1-1.22.29h-1v4h1.73a6,6,0,0,0,4-1.05l.77-.7ZM138.3,54.46a2.24,2.24,0,0,1-.45,1.19,1.89,1.89,0,0,1-1.16.24H135v4.4h2.51a18.78,18.78,0,0,0,2.27-.1,3.35,3.35,0,0,0,1.67-.86,5.29,5.29,0,0,0,1.27-3.08L144,48.74h-4.8Zm-2.1-23.91a14.47,14.47,0,0,0,.45,2.14,4.46,4.46,0,0,0,.75,1.37,2.32,2.32,0,0,0,1.45.81,10.27,10.27,0,0,0,2.05.19H144V30.74h-2.13c-.72,0-1.14-.49-1.25-1.46l-.49-3.9h-4.68Zm.11,12.05c.24,1.21.43,2,.55,2.43a3.62,3.62,0,0,0,.86,1.33,4,4,0,0,0,2.82.71h3.14v-4.4h-1.91a1,1,0,0,1-.76-.29,2.1,2.1,0,0,1-.41-1.1l-.72-4.1h-4.66Z"/><path class="cls-1" d="M205,26.2a.77.77,0,0,1-.21.57.64.64,0,0,1-.47.21h-.55V29.7H205c1.09,0,1.71-.27,1.89-.81a4.61,4.61,0,0,0,.27-1.48v-1.7H205ZM188,55.89a1,1,0,0,1-.34.57.73.73,0,0,1-.47.21h-.41v3.7h1.77a2.46,2.46,0,0,0,1.57-.5,3.15,3.15,0,0,0,.92-1.73l1.19-5h-3.49Zm15.22,2.17a4.17,4.17,0,0,0,.28,1.14,2.18,2.18,0,0,0,.76.77,2.91,2.91,0,0,0,1.63.4h1.57v-3.7h-.27a.8.8,0,0,1-.89-.78L206,53.13h-3.45Zm-6-23.55h1.83l-1,13.24c-.05.66-.27,1-.66,1h-.29v3.71H199a4.27,4.27,0,0,0,1.53-.36,1.71,1.71,0,0,0,1.11-1.17,8.61,8.61,0,0,0,.28-1.4l.8-10.39.41,10.18a4,4,0,0,0,.31,1.34,3,3,0,0,0,1,1.22,4.56,4.56,0,0,0,2.55.5h.53V48.6h-.27a.42.42,0,0,1-.34-.19.78.78,0,0,1-.15-.51l-.59-11.57h-3.19l.06-1.82h4.27v-3.7h-4.2l.29-5.44h-3.87l-.29,5.44h-2Zm1.11,23.55a4.51,4.51,0,0,0,.29,1.14,2.06,2.06,0,0,0,.75.77,3,3,0,0,0,1.65.4h1.6v-3.7h-.32a.79.79,0,0,1-.87-.78l-.34-2.62h-3.49Zm-5,0a3.88,3.88,0,0,0,.27,1.14,2.18,2.18,0,0,0,.78.77,3,3,0,0,0,1.65.4h1.59v-3.7h-.31a.79.79,0,0,1-.88-.78l-.34-2.62h-3.46ZM174.14,41.69a2.82,2.82,0,0,0,.72,2.09,2.43,2.43,0,0,0,1.77.7h1.16V41.2h-.06c-.37,0-.55-.25-.55-.76V26.34h-3Zm7.24,16.51a3.82,3.82,0,0,0,.63,1.5c.28.4,1,.59,2.18.59H186V56.53h-.66c-.43,0-.7-.31-.81-.92l-2.44-12.32V25.5h-3.81V43.29l-2.84,12.54a1.37,1.37,0,0,1-.33.63.88.88,0,0,1-.69.28h-.39v3.7h1.73a4.42,4.42,0,0,0,2-.34,2.13,2.13,0,0,0,1-1.49L180.15,53Zm2.09-18c0,.47-.13.71-.39.71h-.16v3.56h1a2.86,2.86,0,0,0,1.87-.52,2.57,2.57,0,0,0,.62-2V26.34h-2.91Zm9.18,12c2.08,0,3.19-.66,3.34-2s.25-2.43.29-3.32L197,26.77h-5.36l.13-1.19-3.3,0-.61,11.94c-.05.89-.1,1.46-.14,1.69a.77.77,0,0,1-.22.49.91.91,0,0,1-.55.12h-.37v3.51h1.32a3,3,0,0,0,2.14-.51,2.52,2.52,0,0,0,.62-1.39l.13-1.87.7-8.86,2,0-.11,4h-1.93v3.64h1.79l-.13,2.7-1.93,0v3.61l1.67,0-.14,2.11a2.57,2.57,0,0,1-.28,1.2.78.78,0,0,1-.66.27H187v4Z"/><path class="cls-1" d="M245.27,40.2V53.7c0,1,.09,1.56.28,1.75a1,1,0,0,0,.7.27h.64v4.5h-2.07a8.14,8.14,0,0,1-2.48-.4,2.52,2.52,0,0,1-1.66-1.68,8.62,8.62,0,0,1-.44-2.78v-11H212.8V40.2Zm1.23-6.69v4.14H213.09V33.51Zm-.14-7v4.16H219.85a11.67,11.67,0,0,1-1.39,1,4.69,4.69,0,0,1-2.48.53h-3.44V28.19h1.21a2.51,2.51,0,0,0,1.87-1.06l1.47-1.76h5.36l-.62,1.15Z"/><path class="cls-1" d="M97.66,75.91A3.06,3.06,0,0,0,98,77a3.33,3.33,0,0,0,3,1.43c1.53,0,2.76-.66,2.76-1.9s-1.12-1.58-3.37-2.12c-1.44-.34-3.63-.86-3.63-3.07,0-1.73,1.43-3.08,3.89-3.08s4.1,1.15,4.18,3.34l-1.41.11c-.08-.81-.41-2.13-2.7-2.13-1,0-2.56.28-2.56,1.66,0,1,.62,1.32,2.65,1.77s4.36,1,4.36,3.41c0,1.85-1.58,3.32-4.11,3.32s-3.88-1-4.45-2.39A3.62,3.62,0,0,1,96.27,76Z"/><path class="cls-1" d="M110.26,68.49h1.47v4.56h5.77V68.49H119V79.6H117.5V74.37h-5.77V79.6h-1.47Z"/><path class="cls-1" d="M127.72,71.78a12.24,12.24,0,0,0,.59-2.13h0A23.22,23.22,0,0,0,129.1,72l1.17,3.09H126.5ZM123.3,79.6h1.55l1.23-3.38h4.64L132,79.6h1.66l-4.53-11.11h-1.58Z"/><path class="cls-1" d="M138,68.49h1.51l5.8,8.72h0V68.49h1.39V79.6h-1.5l-5.8-8.72h0V79.6H138Z"/><path class="cls-1" d="M157.44,73.93h4.7v4.12a7.17,7.17,0,0,1-4.59,1.73,5.35,5.35,0,0,1-5.68-5.69c0-2.19,1.06-5.79,5.57-5.79,3.71,0,4.33,2.5,4.53,3.29l-1.32.37a3,3,0,0,0-3.21-2.4c-3.75,0-4.05,3.35-4.05,4.44a4.74,4.74,0,0,0,1,3.22,4.17,4.17,0,0,0,3.07,1.25,5.6,5.6,0,0,0,3.25-1.15V75.25h-3.28Z"/><path class="cls-1" d="M167.48,68.49H169v4.56h5.77V68.49h1.48V79.6h-1.48V74.37H169V79.6h-1.47Z"/><path class="cls-1" d="M184.94,71.78a12.24,12.24,0,0,0,.59-2.13h0a19,19,0,0,0,.76,2.31l1.16,3.09h-3.77Zm-4.42,7.82h1.55l1.23-3.38h4.64l1.3,3.38h1.66l-4.53-11.11h-1.58Z"/><path class="cls-1" d="M195.42,68.49h1.47V79.6h-1.47Z"/><path class="cls-1" d="M215.19,73.93h4.7v4.12a7.17,7.17,0,0,1-4.59,1.73,5.35,5.35,0,0,1-5.68-5.69c0-2.19,1.06-5.79,5.57-5.79,3.71,0,4.33,2.5,4.53,3.29L218.4,72a3,3,0,0,0-3.21-2.4c-3.75,0-4.05,3.35-4.05,4.44a4.74,4.74,0,0,0,1,3.22,4.17,4.17,0,0,0,3.07,1.25,5.6,5.6,0,0,0,3.25-1.15V75.25h-3.28Z"/><path class="cls-1" d="M228.39,71.78a12.24,12.24,0,0,0,.59-2.13h0a20.88,20.88,0,0,0,.76,2.31l1.17,3.09h-3.77ZM224,79.6h1.55l1.23-3.38h4.64l1.3,3.38h1.66l-4.53-11.11h-1.58Z"/><path class="cls-1" d="M239.53,75.91a3.22,3.22,0,0,0,.29,1.13,3.34,3.34,0,0,0,3,1.43c1.54,0,2.76-.66,2.76-1.9s-1.11-1.58-3.36-2.12c-1.45-.34-3.63-.86-3.63-3.07,0-1.73,1.43-3.08,3.89-3.08s4.1,1.15,4.17,3.34l-1.41.11c-.08-.81-.4-2.13-2.7-2.13-1,0-2.56.28-2.56,1.66,0,1,.63,1.32,2.66,1.77S247,74,247,76.46c0,1.85-1.59,3.32-4.12,3.32s-3.87-1-4.45-2.39a3.84,3.84,0,0,1-.28-1.36Z"/><path class="cls-2" d="M136.15,88.41H260.61a849.72,849.72,0,0,0-89.17-4.68q-14.69,0-29.21.5Z"/><path class="cls-7" d="M140,84.31q-29.19,1.08-57.69,4.1H134Z"/></g></g></svg>