<svg width="16" height="16" viewBox="0 0 16 16" fill="none" xmlns="http://www.w3.org/2000/svg">
<path d="M8.05517 12.0347C8.1234 12.0347 8.19287 12.0305 8.26274 12.0222C8.93289 11.9418 9.50196 11.4734 9.71203 10.8278C9.72784 10.7795 9.70496 10.7278 9.65879 10.7066C9.61303 10.6853 9.5577 10.7037 9.53191 10.747C9.52942 10.7512 9.26318 11.1812 8.22656 11.3212C8.0714 11.3421 7.9204 11.3529 7.77729 11.3529C7.05099 11.3525 6.72735 11.0787 6.72444 11.0762C6.68784 11.0437 6.63209 11.0429 6.59466 11.0745C6.55681 11.1062 6.54806 11.1612 6.57385 11.2033C6.89001 11.7159 7.4574 12.0347 8.05517 12.0347ZM13.629 5.61041C13.6198 5.61041 13.6115 5.61208 13.6028 5.61208C12.9954 2.98253 10.6746 1.021 7.89211 1.021C5.03306 1.021 2.65904 3.09089 2.1328 5.82919C1.62115 5.92129 1.23178 6.37094 1.23178 6.91478V9.09135C1.23178 9.70143 1.72099 10.1961 2.32499 10.1961C2.66569 10.1961 2.96644 10.0352 3.16653 9.78811C3.64989 11.0666 4.63407 12.0975 5.87946 12.6414C5.88245 12.6349 5.90604 12.5891 5.93437 12.5526C5.95402 12.5272 5.97594 12.5064 5.99481 12.5064C6.01436 12.5064 6.03225 12.5135 6.04764 12.5244C5.75935 12.3097 4.71815 11.2067 4.49269 9.66726C4.39369 8.98966 4.90118 8.32457 5.4923 8.21455C6.44116 8.03786 7.38503 7.83658 8.33389 7.66323C8.93707 7.55321 9.34932 7.22233 9.6014 6.67142C9.66047 6.54264 9.74575 6.2822 9.78486 5.90672C9.79525 5.85089 9.84101 5.80796 9.89968 5.80796C9.93879 5.80796 9.97206 5.82796 9.99411 5.85671L10.0203 5.84047C10.3943 6.38346 11.136 7.58571 11.2425 8.8534C11.3648 10.3028 11.2966 11.2954 10.1871 12.311C10.1859 12.3122 10.1842 12.3139 10.1826 12.3152C10.1672 12.3318 10.158 12.3535 10.158 12.3772C10.158 12.4085 10.1747 12.4352 10.1988 12.4514C10.2079 12.4552 10.2171 12.4602 10.2262 12.4639C10.2337 12.4656 10.2408 12.4681 10.2483 12.4681C10.2558 12.4681 10.2624 12.4656 10.2691 12.4639C10.2849 12.4556 10.2999 12.446 10.3153 12.4377C11.4372 11.8197 12.2978 10.7874 12.6955 9.546C12.8565 9.7852 13.1086 9.95731 13.4014 10.0173C12.9318 12.1535 11.0266 13.4903 8.66629 13.6933C8.52485 13.3424 8.17667 13.0932 7.76777 13.0932C7.23365 13.0932 6.8006 13.5162 6.8006 14.0375C6.8006 14.5588 7.23363 14.9814 7.76777 14.9814C8.19831 14.9814 8.55897 14.7047 8.68418 14.3246C11.4164 14.1025 13.6065 12.4785 14.0637 9.95523C14.4676 9.78645 14.7513 9.39014 14.7513 8.92757V6.72516C14.7513 6.10966 14.2488 5.61041 13.629 5.61041ZM12.621 6.24301C11.9084 4.31273 10.0619 2.93378 7.88962 2.93378C5.72649 2.93378 3.8866 4.30106 3.16736 6.21883C3.1316 6.17507 3.08958 6.13758 3.04839 6.09965C3.45563 3.76264 5.46693 1.98572 7.89211 1.98572C10.3057 1.98572 12.3107 3.74513 12.7313 6.0659C12.6897 6.12175 12.6514 6.18009 12.621 6.24301ZM5.87957 12.6414C5.87953 12.6414 5.87949 12.6414 5.87945 12.6414C5.879 12.6424 5.87898 12.6425 5.87957 12.6414Z" fill="white"/>
</svg>
