<svg width="16" height="16" viewBox="0 0 16 16" fill="none" xmlns="http://www.w3.org/2000/svg">
<g clip-path="url(#clip0_1128_2633)">
<path d="M11.2098 5.06838C11.3804 5.06838 11.5486 5.08086 11.7152 5.09898C11.2613 3.0069 9.00056 1.45215 6.4203 1.45215C3.53536 1.45215 1.17204 3.39811 1.17204 5.8689C1.17204 7.29488 1.95847 8.46607 3.27215 9.37446L2.74732 10.9371L4.5818 10.0265C5.23865 10.1549 5.76506 10.2873 6.4203 10.2873C6.58491 10.2873 6.7479 10.2792 6.9101 10.2664C6.80746 9.91944 6.7479 9.55561 6.7479 9.17847C6.74792 6.90972 8.71682 5.06838 11.2098 5.06838ZM8.3884 3.66013C8.78362 3.66013 9.04522 3.91771 9.04522 4.30852C9.04522 4.69771 8.78362 4.95851 8.3884 4.95851C7.99476 4.95851 7.60035 4.69771 7.60035 4.30852C7.60035 3.91771 7.99478 3.66013 8.3884 3.66013ZM4.71542 4.95849C4.32179 4.95849 3.92495 4.69769 3.92495 4.3085C3.92495 3.91769 4.32179 3.66011 4.71542 3.66011C5.10862 3.66011 5.37064 3.91769 5.37064 4.3085C5.37064 4.69771 5.10862 4.95849 4.71542 4.95849ZM16 9.11608C16 7.03971 13.9003 5.3473 11.5422 5.3473C9.04522 5.3473 7.07874 7.03971 7.07874 9.11608C7.07874 11.1955 9.04522 12.8843 11.5422 12.8843C12.0646 12.8843 12.5918 12.7546 13.1166 12.6243L14.5563 13.4042L14.1615 12.1067C15.2152 11.3243 16 10.2873 16 9.11608ZM10.0949 8.46607C9.83369 8.46607 9.57007 8.2089 9.57007 7.94647C9.57007 7.68769 9.83369 7.42729 10.0949 7.42729C10.4917 7.42729 10.7517 7.68769 10.7517 7.94647C10.7517 8.2089 10.4917 8.46607 10.0949 8.46607ZM12.9814 8.46607C12.7223 8.46607 12.4602 8.2089 12.4602 7.94647C12.4602 7.68769 12.7223 7.42729 12.9814 7.42729C13.3751 7.42729 13.6383 7.68769 13.6383 7.94647C13.6383 8.2089 13.3751 8.46607 12.9814 8.46607Z" fill="white"/>
</g>
<defs>
<clipPath id="clip0_1128_2633">
<rect width="16" height="16" fill="white"/>
</clipPath>
</defs>
</svg>
